<svg width="16" height="16" viewBox="0 0 16 16" fill="none" xmlns="http://www.w3.org/2000/svg">
<path d="M9.06071 7.99965L15.2804 1.77997C15.4209 1.63929 15.4998 1.44858 15.4997 1.24975C15.4997 1.05092 15.4207 0.860257 15.2801 0.719665C15.1395 0.579074 14.9488 0.500062 14.75 0.5C14.5511 0.499938 14.3604 0.57883 14.2198 0.719333L8.00007 6.93901L1.78039 0.719333C1.63971 0.57883 1.449 0.499938 1.25017 0.5C1.05134 0.500062 0.860678 0.579074 0.720087 0.719665C0.579495 0.860257 0.500483 1.05092 0.500421 1.24975C0.500359 1.44858 0.579251 1.63929 0.719754 1.77997L6.93944 7.99965L0.719754 14.2193C0.65004 14.289 0.594729 14.3716 0.55698 14.4627C0.519232 14.5537 0.499787 14.6512 0.499756 14.7498C0.499725 14.8483 0.519109 14.9458 0.5568 15.0369C0.594491 15.1279 0.649751 15.2106 0.719421 15.2803C0.789092 15.35 0.871808 15.4052 0.962843 15.4429C1.05388 15.4806 1.15145 15.5 1.24998 15.5C1.34851 15.4999 1.44606 15.4805 1.53707 15.4427C1.62808 15.405 1.71077 15.3497 1.78039 15.28L8.00007 9.06029L14.2198 15.28C14.3604 15.4205 14.5511 15.4994 14.75 15.4993C14.9488 15.4992 15.1395 15.4202 15.2801 15.2796C15.4207 15.139 15.4997 14.9484 15.4997 14.7496C15.4998 14.5507 15.4209 14.36 15.2804 14.2193L9.06071 7.99965Z" fill="#161639"/>
</svg>
